HIERARCHY
ROOT pelvis
{
  OFFSET 0 100 0
  CHANNELS 6 Xposition Yposition Zposition Zrotation Xrotation Yrotation
  JOINT pelvis_right_femur
  {
    OFFSET -10.78128 -3.44521 -0.5502486
    CHANNELS 3 Zrotation Xrotation Yrotation
    JOINT right_femur_tibia
    {
      OFFSET -0.8047443 -44.0398 -0.1307829
      CHANNELS 3 Zrotation Xrotation Yrotation
      JOINT right_tibia_foot
      {
        OFFSET 3.006224 -47.83518 -5
        CHANNELS 3 Zrotation Xrotation Yrotation
        End Site
        {
          OFFSET 0 -5 15
        }
      }
    }
  }
  JOINT pelvis_left_femur
  {
    OFFSET 10.78128 -3.44521 -0.5502486
    CHANNELS 3 Zrotation Xrotation Yrotation
    JOINT left_femur_tibia
    {
      OFFSET 0.8047443 -44.0398 -0.1307829
      CHANNELS 3 Zrotation Xrotation Yrotation
      JOINT left_tibia_foot
      {
        OFFSET -4.370144 -48.10324 -4.275266
        CHANNELS 3 Zrotation Xrotation Yrotation
        End Site
        {
          OFFSET 0 -5 15
        }
      }
    }
  }
  JOINT pelvis_spine1
  {
    OFFSET 0 6.468898 -3.129235
    CHANNELS 3 Zrotation Xrotation Yrotation
    JOINT spine1
    {
      OFFSET 0 23.15396 4.99043
      CHANNELS 3 Zrotation Xrotation Yrotation
      JOINT spine2
      {
        OFFSET 0 20.79997 -5.064912
        CHANNELS 3 Zrotation Xrotation Yrotation
        JOINT neck
        {
          OFFSET 0 14.38658 9.616178
          CHANNELS 3 Zrotation Xrotation Yrotation
          End Site
          {
            OFFSET 0 20 0
          }
        }
      }
      JOINT right_manubrium
      {
        OFFSET -5.722621 16.35077 3.967754
        CHANNELS 3 Zrotation Xrotation Yrotation
        JOINT right_clavicle
        {
          OFFSET -13.16364 1.694482 -4.693211
          CHANNELS 3 Zrotation Xrotation Yrotation
          JOINT right_humerus
          {
            OFFSET -28.5034 -0.3100689 -2.792744
            CHANNELS 3 Zrotation Xrotation Yrotation
            JOINT right_radius
            {
              OFFSET -25.15693 0.02248979 -1.271978
              CHANNELS 3 Zrotation Xrotation Yrotation
              End Site
              {
                OFFSET -15 0 0
              }
            }
          }
        }
      }
      JOINT left_manubrium
      {
        OFFSET 5.722621 16.35077 3.967754
        CHANNELS 3 Zrotation Xrotation Yrotation
        JOINT left_clavicle
        {
          OFFSET 13.16364 1.694482 -4.693211
          CHANNELS 3 Zrotation Xrotation Yrotation
          JOINT left_humerus
          {
            OFFSET 29.39168 -1.063119 -2.237045
            CHANNELS 3 Zrotation Xrotation Yrotation
            JOINT left_radius
            {
              OFFSET 24.59957 -0.9528479 0.9047498
              CHANNELS 3 Zrotation Xrotation Yrotation
              End Site
              {
                OFFSET 15 -0 -0
              }
            }
          }
        }
      }
    }
  }
}
MOTION
Frames: 23
Frame Time: 0.0416666666667
19.31541 102.8299 3095.844 -0.491183 -6.1806 1.986603 6.415514 -14.42413 2.510786 -0 15.47512 -0 -6.248345 -1.283843 -6.051834 -3.135364 10.30667 -6.573182 -0 50.70259 -0 -5.668186 -8.190483 13.44426 0.03748069 -4.348066 3.176123 1.962894 12.1378 -9.041891 1.703265 22.87701 4.44258 0.002620587 -24.6658 7.737896 -6.909638 -20.08474 10.37591 101.1161 14.12603 -27.80408 -0 0 1.083822 -21.3163 7.747157 10.29337 5.350899 -30.09422 -6.818201 -80.8705 17.37197 7.277727 0 0 -39.49087 11.60471 14.73935 2.357921
19.13031 104.1363 3102.282 -0.3782323 -7.097534 1.116496 6.420778 -9.009381 3.138559 -0 15.76895 -0 -6.230494 -3.475681 -5.572861 -2.833315 4.157899 -6.56927 -0 57.23501 -0 -6.033503 -6.603843 14.49358 0.2070657 -3.770407 3.476007 1.623655 12.75454 -8.572542 1.827659 22.99491 4.422619 0.04601701 -24.41535 7.837647 -6.700745 -20.62698 10.51949 100.8589 14.47723 -26.53466 -0 0 2.154813 -21.22287 8.104768 10.40339 4.707907 -29.28924 -7.112171 -82.07785 18.17391 9.591671 0 0 -36.50387 10.74804 14.345 3.751783
19.01082 105.368 3108.293 0.09559297 -7.672684 0.2723779 5.815533 -3.527219 3.197741 -0 14.22892 -0 -5.737705 -5.61941 -4.709301 -2.556096 -2.77635 -6.345974 -0 59.5843 -0 -6.479837 -6.314221 15.31687 0.3922347 -3.22324 3.891778 1.282458 13.42689 -8.098748 1.934145 23.01644 4.351998 -0.008257188 -24.34421 7.934135 -6.627341 -21.46052 10.63625 100.644 14.81761 -25.11099 -0 0 3.565718 -21.15027 8.527923 10.62412 3.97721 -28.42691 -7.355866 -83.46054 18.91968 12.4008 0 0 -33.47727 9.720698 13.72764 5.426252
18.93178 106.1914 3113.99 0.5683396 -7.9554 -0.4813986 5.200849 1.552176 3.084146 -0 12.02379 -0 -5.118082 -7.626674 -3.803896 -1.887375 -9.53967 -5.726973 -0 56.92668 -0 -6.531542 -6.589205 16.22742 0.5731371 -2.760996 4.400008 0.9593245 14.08823 -7.64879 2.016748 22.91334 4.223647 -0.1611967 -24.44503 8.010857 -6.688439 -22.55734 10.70341 100.4352 15.14141 -23.57989 -0 0 5.318085 -21.11964 9.029715 10.9733 3.245626 -27.5378 -7.500833 -84.94947 19.52098 15.55192 0 0 -30.62093 8.586098 12.93022 7.256691
18.89485 106.4008 3119.499 0.7254121 -7.937571 -1.192432 4.919392 6.021969 3.071746 -0 10.1686 -0 -4.582858 -9.690656 -3.083319 -0.654653 -15.5359 -4.789716 -0 49.83046 -0 -6.088618 -6.800301 17.3718 0.7352037 -2.42542 4.960488 0.6744477 14.67746 -7.248321 2.072954 22.67814 4.04017 -0.3975411 -24.67494 8.053202 -6.856779 -23.84415 10.70953 100.1861 15.43922 -22.00059 -0 0 7.360245 -21.14642 9.612733 11.45435 2.592313 -26.6563 -7.523423 -86.45127 19.91179 18.83596 0 0 -28.10845 7.428182 12.03511 9.08611
18.93523 105.9841 3124.946 0.5032275 -7.446228 -1.916537 4.894891 9.7778 3.118947 -0 9.12737 -0 -4.119276 -11.97438 -2.451781 0.8829139 -20.49829 -3.801179 -0 40.04439 -0 -5.479087 -6.758442 18.46658 0.8689974 -2.231284 5.519183 0.4435656 15.14736 -6.912748 2.106086 22.33643 3.815532 -0.6870303 -24.96232 8.055717 -7.082443 -25.20195 10.65884 99.85741 15.70136 -20.43997 -0 0 9.56933 -21.23141 10.2566 12.04537 2.070162 -25.81417 -7.429522 -87.86327 20.07508 22.00874 0 0 -26.03265 6.333898 11.15434 10.75707
19.08515 105.0972 3130.483 0.06117478 -6.481041 -2.665195 4.858303 12.7977 3.048614 -0 9.036541 -0 -3.665338 -14.25902 -1.753692 2.205905 -24.1873 -3.067623 -0 29.98622 -0 -5.046503 -6.592628 19.21843 0.9700376 -2.162021 6.020422 0.2726829 15.47486 -6.643896 2.123991 21.94406 3.573936 -0.9884797 -25.22673 8.02382 -7.305422 -26.48838 10.57122 99.4366 15.91954 -18.96995 -0 0 11.76331 -21.36143 10.91638 12.69498 1.697769 -25.04065 -7.252286 -89.0979 20.04643 24.83679 0 0 -24.39403 5.375958 10.40209 12.14514
19.34938 103.9755 3136.273 -0.3438853 -5.361585 -3.422687 4.547426 15.21921 2.784325 -0 9.920536 -0 -3.215886 -15.97837 -0.9810574 2.811075 -26.41972 -2.895973 -0 21.87819 -0 -4.919693 -6.517578 19.6372 1.039044 -2.178254 6.420861 0.1567415 15.66699 -6.433809 2.135122 21.5701 3.345552 -1.256923 -25.40239 7.96987 -7.471477 -27.57112 10.47736 98.94845 16.08725 -17.66811 -0 0 13.73638 -21.51632 11.53413 13.32953 1.464072 -24.36818 -7.043697 -90.09855 19.89295 27.14032 0 0 -23.13238 4.606377 9.864509 13.17652
19.70752 102.8386 3142.431 -0.4855307 -4.537413 -4.168668 3.799004 17.27023 2.440987 -0 11.86138 -0 -2.850131 -16.44368 -0.2519695 2.460928 -27.24659 -3.49505 -0 16.8971 -0 -4.969375 -6.641579 19.94405 1.081893 -2.23304 6.697454 0.08360774 15.75774 -6.273323 2.144922 21.27595 3.160175 -1.452912 -25.45539 7.907474 -7.545472 -28.35496 10.41018 98.4536 16.19959 -16.61886 -0 0 15.298 -21.67472 12.05455 13.86779 1.339801 -23.83708 -6.862457 -90.83734 19.68587 28.81141 0 0 -22.18101 4.059253 9.580253 13.82795
20.13731 101.8596 3148.998 -0.256237 -4.310811 -4.845725 2.585341 19.0114 2.263856 -0 15.24232 -0 -2.672836 -14.97064 0.3020829 1.268496 -26.88161 -4.791903 -0 14.96437 -0 -4.862663 -6.882688 20.26291 1.108684 -2.286385 6.847398 0.04099737 15.79718 -6.160855 2.153993 21.10019 3.041204 -1.551123 -25.39028 7.847356 -7.519456 -28.79356 10.39549 98.03792 16.25199 -15.91214 -0 0 16.30015 -21.81536 12.43481 14.23611 1.289263 -23.49549 -6.761921 -91.3007 19.48204 29.8062 0 0 -21.51643 3.7561 9.536226 14.11579
20.63935 101.2075 3155.945 0.3097341 -4.688635 -5.31317 1.048306 20.08943 2.454744 -0 20.79642 -0 -2.687151 -11.0388 0.586376 -0.4379109 -25.44801 -6.373624 -0 15.29774 -0 -4.281413 -7.080048 20.42384 1.132192 -2.31547 6.88202 0.02313688 15.83743 -6.10807 2.157839 21.05345 3.002331 -1.544516 -25.24576 7.795557 -7.413405 -28.88528 10.44617 97.79791 16.23602 -15.64105 -0 0 16.64625 -21.91734 12.6462 14.37913 1.279515 -23.39677 -6.782235 -91.47243 19.31603 30.1201 0 0 -21.188 3.711333 9.67891 14.07781
21.22786 101.0797 3163.173 1.042196 -5.430869 -5.37805 -0.413146 19.76084 2.918703 -0 29.02141 -0 -2.730295 -4.878355 0.4839848 -2.27746 -22.8722 -7.680132 -0 16.97484 -0 -3.238969 -7.263787 20.13116 1.165804 -2.320964 6.818555 0.0353959 15.91868 -6.141493 2.147403 21.12081 3.047227 -1.443607 -25.08329 7.753384 -7.269886 -28.66017 10.56068 97.82485 16.13329 -15.89716 -0 0 16.28808 -21.96243 12.67013 14.26629 1.28731 -23.59623 -6.946166 -91.32132 19.19682 29.75876 0 0 -21.32537 3.936637 9.935253 13.75224
21.88654 101.6259 3170.449 1.6606 -6.226299 -4.921397 -1.229285 17.26988 3.200408 -0 39.08339 -0 -2.567039 1.817552 -0.1732619 -3.899191 -19.04375 -8.371666 -0 18.99045 -0 -2.162509 -7.76473 19.36319 1.219888 -2.331713 6.674379 0.09635666 16.05345 -6.299391 2.109936 21.26586 3.169726 -1.274605 -24.9752 7.718089 -7.147314 -28.1706 10.72216 98.18369 15.91229 -16.75294 -0 0 15.23192 -21.9415 12.4939 13.90081 1.306071 -24.14195 -7.251918 -90.80082 19.10414 28.72351 0 0 -22.12249 4.439051 10.23302 13.1624
22.55467 102.7823 3177.436 1.906504 -6.879496 -4.009509 -1.170454 12.405 2.957906 -0 48.40337 -0 -2.191403 6.523358 -1.395976 -5.040865 -14.11861 -8.571989 -0 20.22193 -0 -1.464461 -8.844492 18.48885 1.295314 -2.405447 6.465724 0.2353188 16.20948 -6.620807 2.031162 21.43507 3.352496 -1.077999 -24.99229 7.68351 -7.111419 -27.49006 10.89637 98.88195 15.53576 -18.2212 -0 0 13.56503 -21.86409 12.11169 13.33337 1.353307 -25.05237 -7.65944 -89.8687 18.98437 27.025 0 0 -23.78444 5.208455 10.51663 12.3141
23.17918 104.2151 3183.881 1.734277 -7.357759 -2.855752 -0.6146309 5.797397 2.391772 -0 54.07213 -0 -2.0327 8.073642 -2.789582 -5.581867 -8.675102 -8.64705 -0 19.89785 -0 -1.105879 -10.32048 17.84481 1.375603 -2.614225 6.207799 0.4810794 16.30337 -7.124213 1.900876 21.57051 3.566766 -0.9021675 -25.18416 7.64129 -7.217099 -26.70588 11.03505 99.8412 14.98455 -20.20737 -0 0 11.47315 -21.76309 11.53231 12.66463 1.472661 -26.28618 -8.081811 -88.52549 18.75796 24.71497 0 0 -26.42517 6.201295 10.7615 11.20614
23.75205 105.4841 3189.757 1.32184 -7.698901 -1.682399 -0.04384861 -1.408078 1.849964 -0 54.71821 -0 -2.469081 7.351972 -3.87017 -5.589807 -3.400969 -8.780672 -0 18.14539 -0 -0.8624263 -11.86404 17.38629 1.424589 -3.009012 5.910941 0.8430563 16.22251 -7.784321 1.721511 21.63481 3.777848 -0.7875366 -25.5535 7.584406 -7.48045 -25.89151 11.09116 100.9028 14.28904 -22.50088 -0 0 9.202748 -21.68284 10.78841 12.01621 1.722176 -27.72701 -8.401415 -86.84825 18.35143 21.90446 0 0 -29.95561 7.338303 10.98483 9.847699
24.28347 106.2442 3195.232 0.9231043 -7.895902 -0.6297258 0.3191487 -8.217814 1.347785 -0 50.62782 -0 -3.304936 5.617393 -4.51362 -5.314358 1.33906 -8.9247 -0 15.7286 -0 -0.7152976 -13.42654 16.86177 1.397143 -3.583819 5.574919 1.297018 15.8731 -8.526469 1.513655 21.63102 3.955796 -0.7497318 -26.04244 7.512903 -7.860677 -25.07735 11.03893 101.88 13.54185 -24.8292 -0 0 6.981174 -21.65371 9.940567 11.48297 2.149422 -29.20229 -8.511644 -84.98914 17.74315 18.75358 0 0 -34.04997 8.523598 11.2397 8.275328
24.76911 106.3355 3200.545 0.7382065 -7.828874 0.256826 0.415243 -14.11509 0.6657344 -0 42.9005 -0 -4.033371 3.613081 -4.858811 -5.060511 5.48388 -8.96656 -0 13.44382 -0 -0.7566252 -15.13769 16.09485 1.260774 -4.267509 5.191814 1.787073 15.22822 -9.246554 1.31233 21.59764 4.084576 -0.7742963 -26.546 7.43749 -8.269945 -24.25385 10.88513 102.6229 12.87398 -26.9359 -0 0 4.964242 -21.67503 9.074186 11.10388 2.764484 -30.52801 -8.360946 -83.13899 16.98944 15.45634 0 0 -38.22171 9.668747 11.58666 6.566383
25.19041 105.7823 3205.925 0.8344139 -7.37192 0.9945852 0.2805604 -18.94149 -0.3233008 -0 33.06074 -0 -4.317235 1.90686 -5.056314 -5.028806 9.070198 -8.808151 -0 11.93975 -0 -1.002603 -16.98862 15.08415 1.015558 -4.946476 4.759959 2.242414 14.35054 -9.844026 1.155199 21.58477 4.165173 -0.8240655 -26.94497 7.376504 -8.604845 -23.40446 10.66609 103.0568 12.40623 -28.63463 -0 0 3.238289 -21.71973 8.285939 10.86501 3.523457 -31.55626 -7.977176 -81.48174 16.21322 12.23556 0 0 -41.95299 10.70371 12.0583 4.842839
25.52797 104.7491 3211.56 1.135543 -6.55289 1.621299 0.06605289 -22.65219 -1.478326 -0 22.90046 -0 -4.165743 1.003369 -5.201734 -5.238496 12.15443 -8.411622 -0 11.75695 -0 -1.41049 -18.71815 13.96575 0.6992533 -5.503566 4.297626 2.599453 13.37745 -10.25121 1.069101 21.63013 4.21199 -0.8540061 -27.14284 7.346914 -8.782099 -22.5371 10.43355 103.1843 12.20305 -29.82979 -0 0 1.845637 -21.75321 7.659423 10.72099 4.333685 -32.20878 -7.460096 -80.15697 15.56185 9.328873 0 0 -44.82035 11.57504 12.6394 3.255496
25.76526 103.4869 3217.587 1.468007 -5.571421 2.171552 0.02830058 -25.15053 -2.439133 -0 14.22151 -0 -3.841385 1.08511 -5.361272 -5.544728 14.76519 -7.843376 -0 13.30674 -0 -1.988552 -19.89997 12.91349 0.3734335 -5.855166 3.844615 2.818933 12.47452 -10.44657 1.061764 21.74684 4.244311 -0.8283748 -27.09409 7.355378 -8.763572 -21.69383 10.23621 103.0626 12.25453 -30.51087 -0 0 0.8050408 -21.75187 7.241636 10.62097 5.081883 -32.48489 -6.942256 -79.24063 15.15456 6.9556 0 0 -46.57963 12.24141 13.27219 1.950338
25.88625 102.2837 3224.069 1.62311 -4.7054 2.660807 0.4567552 -26.27064 -2.798441 -0 8.529616 -0 -3.673526 1.823723 -5.564444 -5.708027 16.81576 -7.265981 -0 16.80607 -0 -2.809783 -20.07095 12.06285 0.09934848 -5.969098 3.450485 2.890944 11.78216 -10.44764 1.122584 21.92513 4.277499 -0.73283 -26.81296 7.396205 -8.561033 -20.93941 10.10667 102.7717 12.4945 -30.72669 -0 0 0.1209893 -21.7109 7.035494 10.52924 5.668383 -32.44103 -6.539618 -78.74966 15.04775 5.280863 0 0 -47.18083 12.67305 13.87922 1.035642
25.87996 101.4119 3230.976 1.435441 -4.205058 3.05531 1.524995 -25.88984 -2.315607 -0 6.631314 -0 -3.891023 2.495571 -5.782447 -5.506551 18.03151 -6.850933 -0 22.24374 -0 -3.857279 -18.87162 11.51906 -0.08173706 -5.858278 3.158474 2.828748 11.38246 -10.29177 1.230603 22.14284 4.318408 -0.5763946 -26.36078 7.457399 -8.222767 -20.34104 10.05799 102.3896 12.83922 -30.55102 0 0 -0.2136727 -21.63985 7.010799 10.43409 6.027503 -32.15499 -6.319492 -78.66225 15.23423 4.396313 0 0 -46.71925 12.85413 14.38712 0.5680963
